<svg width="81" height="10" viewBox="0 0 81 10" fill="none" xmlns="http://www.w3.org/2000/svg">
<path d="M5.46729 7.81565H2.05324L1.46543 9.481H0.0701294L2.99137 1.33203H4.54105L7.46228 9.481H6.0551L5.46729 7.81565ZM3.76324 2.94405L2.42731 6.72517H5.09323L3.76324 2.94405Z" fill="#172C4F"/>
<path d="M18.9349 4.99075C18.9349 7.49767 17.219 9.03263 14.6065 9.03263H11.9406V0.895524H14.6065C17.219 0.889598 18.9349 2.47198 18.9349 4.99075ZM14.6065 7.94216C16.5302 7.94216 17.5633 6.83983 17.5633 4.99075C17.5633 3.12982 16.5302 1.98008 14.6065 1.98008H13.2824V7.94216H14.6065Z" fill="#172C4F"/>
<path d="M28.7552 1.33795H30.1624L27.0987 9.47505H25.549L22.4734 1.33795H23.9043L26.3209 8.10603L28.7552 1.33795Z" fill="#172C4F"/>
<path d="M34.5383 1.33795H35.8735V9.47505H34.5383V1.33795Z" fill="#172C4F"/>
<path d="M43.6869 9.55826C42.0541 9.55826 40.8013 8.66929 40.8013 7.22914H42.2323C42.2916 7.89884 42.7607 8.43815 43.6869 8.43815C44.6251 8.43815 45.1535 7.93439 45.1535 7.24099C45.1535 5.27339 40.8251 6.54759 40.8251 3.54878C40.8251 2.12049 41.9651 1.23151 43.6276 1.23151C45.1891 1.23151 46.2935 2.04937 46.4063 3.44803H44.9279C44.8804 2.89686 44.3994 2.3931 43.5563 2.3694C42.7844 2.34569 42.1848 2.71906 42.1848 3.50729C42.1848 5.3445 46.5013 4.20069 46.5013 7.1758C46.5013 8.39073 45.5038 9.55826 43.6869 9.55826Z" fill="#172C4F"/>
<path d="M55.0469 9.55784C52.7491 9.55784 50.8788 7.83915 50.8788 5.38557C50.8788 2.94978 52.7432 1.22516 55.0469 1.22516C57.3685 1.22516 59.215 2.94385 59.215 5.38557C59.215 7.83915 57.3744 9.55784 55.0469 9.55784ZM55.0469 8.40217C56.6679 8.40217 57.8376 7.22872 57.8376 5.3915C57.8376 3.55428 56.6619 2.40453 55.0469 2.40453C53.426 2.40453 52.2563 3.55428 52.2563 5.3915C52.2563 7.22872 53.432 8.40217 55.0469 8.40217Z" fill="#172C4F"/>
<path d="M66.784 1.33795C68.7196 1.33795 69.6696 2.45214 69.6696 3.77375C69.6696 4.73384 69.1531 5.76505 67.7815 6.10287L69.8003 9.47505H68.2031L66.3268 6.22139H65.3056V9.47505H63.9697V1.33795H66.784ZM66.784 2.42843H65.3056V5.15463H66.784C67.829 5.15463 68.2981 4.57976 68.2981 3.77375C68.2981 2.95589 67.829 2.42843 66.784 2.42843Z" fill="#172C4F"/>
<path d="M77.1869 9.55826C75.5541 9.55826 74.3013 8.66929 74.3013 7.22914H75.7322C75.7916 7.89884 76.2606 8.43815 77.1869 8.43815C78.125 8.43815 78.6534 7.93439 78.6534 7.24099C78.6534 5.27339 74.325 6.54759 74.325 3.54878C74.325 2.12049 75.465 1.23151 77.1275 1.23151C78.6891 1.23151 79.7934 2.04937 79.9062 3.44803H78.4278C78.3803 2.89686 77.8994 2.3931 77.0563 2.3694C76.2844 2.34569 75.6847 2.71906 75.6847 3.50729C75.6847 5.3445 80.0012 4.20069 80.0012 7.1758C80.0012 8.39073 79.0038 9.55826 77.1869 9.55826Z" fill="#172C4F"/>
</svg>
