<svg height="34" viewBox="0 0 115 34" fill="none" xmlns="http://www.w3.org/2000/svg">
<path d="M8.48495 0.442139V27.5441H19.1546V33.8203H0.338745V0.442139H8.48495Z" fill="#172C4F"/>
<path d="M43.5467 6.95538H31.2087V13.7057H42.1158V19.9819H31.2087V27.307H43.5467V33.8203H23.0624V0.442139H43.5467V6.95538Z" fill="#172C4F"/>
<path d="M69.6547 27.9234H57.1742L55.1733 33.8203H46.647L58.7476 0.442139H68.1822L80.2828 33.8203H71.6616L69.6547 27.9234ZM63.4145 9.42674L59.3176 21.6472H67.5588L63.4145 9.42674Z" fill="#172C4F"/>
<path d="M114.001 17.1312C114.001 27.0226 107.144 33.8203 96.4739 33.8203H83.9458V0.442139H96.4739C107.144 0.442139 114.001 7.19244 114.001 17.1312ZM95.9454 26.7796C102.091 26.7796 105.713 23.2592 105.713 17.1253C105.713 10.9913 102.091 7.37616 95.9454 7.37616H92.0861V26.7736H95.9454V26.7796Z" fill="#172C4F"/>
</svg>
